# xmcd CD database file
#
# Track frame offsets:
#	150
#	17595
#	34025
#	45575
#	63337
#	79034
#	93295
#	107077
#	122165
#	138424
#	157253
#	171805
#	187934
#	203225
#	215238
#	229020
#	245175
#
# Disc length: 3512 seconds
#
# Revision: 0
# Processed by: cddbd v1.4PL0 Copyright (c) Steve Scherf et al.
# Submitted via: CDex 1.40Release
#
DISCID=ec0db611
DTITLE=Tommy Tate - Soul Revelations The Complete Koko Recordings
DYEAR=1900
DGENRE=Blues
TTITLE0=Help Me Love
TTITLE1=School Of Life
TTITLE2=Sanity
TTITLE3=I Just Can't Believe Your Love For Me
TTITLE4=Hard Times SOS
TTITLE5=Revelations
TTITLE6=A Mighty Long Way
TTITLE7=If You Got To Love Somebody
TTITLE8=I Remember
TTITLE9=Always
TTITLE10=I Ain't Gonna Worry
TTITLE11=More Power To You
TTITLE12=If You Ain't Man Enough
TTITLE13=If You Ain't No Laughing Matter
TTITLE14=Identify
TTITLE15=It's A Bad Situation
TTITLE16=I'm So Satisfied
EXTD=ID3G: 0
EXTT0=
EXTT1=
EXTT2=
EXTT3=
EXTT4=
EXTT5=
EXTT6=
EXTT7=
EXTT8=
EXTT9=
EXTT10=
EXTT11=
EXTT12=
EXTT13=
EXTT14=
EXTT15=
EXTT16=
PLAYORDER=
